<svg xmlns="http://www.w3.org/2000/svg" xmlns:svg="http://www.w3.org/2000/svg" xmlns:xlink="http://www.w3.org/1999/xlink" id="svg8" width="512" height="512" version="1.1" viewBox="0 0 135.467 135.467"><defs id="defs2"><marker style="overflow:visible" id="marker3561" orient="auto" refX="0" refY="0"><path style="fill:#fff;fill-rule:evenodd;stroke:#000;stroke-width:1.00000003pt;stroke-opacity:1" id="path3559" d="M 5.77,0 -2.88,5 V -5 Z" transform="matrix(0.8,0,0,0.8,-4.8,0)"/></marker><marker style="overflow:visible" id="marker2751" orient="auto" refX="0" refY="0"><path style="fill:#fff;fill-rule:evenodd;stroke:#000;stroke-width:1.00000003pt;stroke-opacity:1" id="path2749" d="M 5.77,0 -2.88,5 V -5 Z" transform="matrix(0.8,0,0,0.8,-4.8,0)"/></marker><marker style="overflow:visible" id="marker2429" orient="auto" refX="0" refY="0"><path style="fill:#fff;fill-rule:evenodd;stroke:#000;stroke-width:1.00000003pt;stroke-opacity:1" id="path2427" d="M 5.77,0 -2.88,5 V -5 Z" transform="matrix(0.8,0,0,0.8,-4.8,0)"/></marker><marker style="overflow:visible" id="marker2113" orient="auto" refX="0" refY="0"><path style="fill:#fff;fill-rule:evenodd;stroke:#000;stroke-width:1.00000003pt;stroke-opacity:1" id="path2111" d="M 5.77,0 -2.88,5 V -5 Z" transform="matrix(0.8,0,0,0.8,-4.8,0)"/></marker><linearGradient id="linearGradient15187"><stop style="stop-color:#777;stop-opacity:1" id="stop15183" offset="0"/><stop style="stop-color:#999;stop-opacity:1" id="stop15185" offset="1"/></linearGradient><linearGradient id="linearGradient14988"><stop style="stop-color:#000;stop-opacity:1" id="stop14984" offset="0"/><stop style="stop-color:#000;stop-opacity:0" id="stop14986" offset="1"/></linearGradient><linearGradient id="linearGradient14980"><stop style="stop-color:#1f395f;stop-opacity:1" id="stop14976" offset="0"/><stop style="stop-color:#1f395f;stop-opacity:0" id="stop14978" offset="1"/></linearGradient><linearGradient id="linearGradient13932"><stop style="stop-color:#204a87;stop-opacity:1" id="stop13928" offset="0"/><stop style="stop-color:#3a639d;stop-opacity:1" id="stop13930" offset="1"/></linearGradient><linearGradient id="linearGradient13924"><stop style="stop-color:#75507b;stop-opacity:1" id="stop13920" offset="0"/><stop style="stop-color:#a44ab3;stop-opacity:1" id="stop13922" offset="1"/></linearGradient><linearGradient id="linearGradient13916"><stop style="stop-color:#b82f2f;stop-opacity:1" id="stop13912" offset="0"/><stop style="stop-color:#ef2929;stop-opacity:1" id="stop13914" offset="1"/></linearGradient><linearGradient id="linearGradient13908"><stop style="stop-color:#4e9a06;stop-opacity:1" id="stop13904" offset="0"/><stop style="stop-color:#61c105;stop-opacity:1" id="stop13906" offset="1"/></linearGradient><linearGradient id="linearGradient13900"><stop style="stop-color:#d76a00;stop-opacity:1" id="stop13896" offset="0"/><stop style="stop-color:#f57900;stop-opacity:.9727273" id="stop13898" offset="1"/></linearGradient><linearGradient id="linearGradient13892"><stop style="stop-color:#8f5902;stop-opacity:1" id="stop13888" offset="0"/><stop style="stop-color:#c97c00;stop-opacity:1" id="stop13890" offset="1"/></linearGradient><linearGradient id="linearGradient13884"><stop style="stop-color:#ad7fa8;stop-opacity:1" id="stop13880" offset="0"/><stop style="stop-color:#cc7cc4;stop-opacity:1" id="stop13882" offset="1"/></linearGradient><marker style="overflow:visible" id="marker12889" orient="auto" refX="0" refY="0"><path style="fill:#000;fill-opacity:1;fill-rule:evenodd;stroke:#000;stroke-width:.7458791pt;stroke-opacity:1" id="path12887" d="m -1.5971367,-7.0977635 c -1.8892507,0 -3.426382,1.5371314 -3.426382,3.4263822 0,0.6566798 0.2383531,1.2269257 0.5594092,1.7481542 -0.038751,0.032111 -0.079672,0.058463 -0.1165436,0.093235 -0.6224234,-0.8549928 -1.5893983,-1.4451409 -2.7271199,-1.4451409 -1.8892515,-1e-7 -3.426382,1.5371314 -3.426382,3.42638214 0,1.88925076 1.5371305,3.42638216 3.426382,3.42638216 0.9934462,0 1.868619,-0.4420611 2.4940326,-1.1188187 -0.124687,0.3548915 -0.2097783,0.7214874 -0.2097783,1.1188187 0,1.8892506 1.5371313,3.4263822 3.426382,3.4263822 1.88925064,0 3.4263821,-1.5371316 3.4263821,-3.4263822 0,-0.7933959 -0.3155586,-1.4938285 -0.7691878,-2.0744763 C 2.4152718,1.7663868 3.7718375,2.2973711 4.7661444,3.8340272 4.0279463,3.0958289 3.5540908,1.7534117 3.5540908,-0.05852936 l -0.6293354,-0.04661745 0.5827179,-0.0233087 c 0,-1.81194109 0.4505466,-3.15435829 1.188745,-3.89255659 -0.9590906,1.4822308 -2.2571634,2.0263625 -3.5662345,2.3075635 0.4041964,-0.5619092 0.6992616,-1.213407 0.6992616,-1.9579327 0,-1.8892506 -1.53713146,-3.4263822 -3.4263821,-3.4263822 z" transform="scale(0.6)"/></marker><marker style="overflow:visible" id="marker12585" orient="auto" refX="0" refY="0"><path style="fill:#000;fill-opacity:1;fill-rule:evenodd;stroke:#000;stroke-width:.7458791pt;stroke-opacity:1" id="path12583" d="m -1.5971367,-7.0977635 c -1.8892507,0 -3.426382,1.5371314 -3.426382,3.4263822 0,0.6566798 0.2383531,1.2269257 0.5594092,1.7481542 -0.038751,0.032111 -0.079672,0.058463 -0.1165436,0.093235 -0.6224234,-0.8549928 -1.5893983,-1.4451409 -2.7271199,-1.4451409 -1.8892515,-1e-7 -3.426382,1.5371314 -3.426382,3.42638214 0,1.88925076 1.5371305,3.42638216 3.426382,3.42638216 0.9934462,0 1.868619,-0.4420611 2.4940326,-1.1188187 -0.124687,0.3548915 -0.2097783,0.7214874 -0.2097783,1.1188187 0,1.8892506 1.5371313,3.4263822 3.426382,3.4263822 1.88925064,0 3.4263821,-1.5371316 3.4263821,-3.4263822 0,-0.7933959 -0.3155586,-1.4938285 -0.7691878,-2.0744763 C 2.4152718,1.7663868 3.7718375,2.2973711 4.7661444,3.8340272 4.0279463,3.0958289 3.5540908,1.7534117 3.5540908,-0.05852936 l -0.6293354,-0.04661745 0.5827179,-0.0233087 c 0,-1.81194109 0.4505466,-3.15435829 1.188745,-3.89255659 -0.9590906,1.4822308 -2.2571634,2.0263625 -3.5662345,2.3075635 0.4041964,-0.5619092 0.6992616,-1.213407 0.6992616,-1.9579327 0,-1.8892506 -1.53713146,-3.4263822 -3.4263821,-3.4263822 z" transform="scale(0.6)"/></marker><marker style="overflow:visible" id="marker12287" orient="auto" refX="0" refY="0"><path style="fill:#000;fill-opacity:1;fill-rule:evenodd;stroke:#000;stroke-width:.7458791pt;stroke-opacity:1" id="path12285" d="m -1.5971367,-7.0977635 c -1.8892507,0 -3.426382,1.5371314 -3.426382,3.4263822 0,0.6566798 0.2383531,1.2269257 0.5594092,1.7481542 -0.038751,0.032111 -0.079672,0.058463 -0.1165436,0.093235 -0.6224234,-0.8549928 -1.5893983,-1.4451409 -2.7271199,-1.4451409 -1.8892515,-1e-7 -3.426382,1.5371314 -3.426382,3.42638214 0,1.88925076 1.5371305,3.42638216 3.426382,3.42638216 0.9934462,0 1.868619,-0.4420611 2.4940326,-1.1188187 -0.124687,0.3548915 -0.2097783,0.7214874 -0.2097783,1.1188187 0,1.8892506 1.5371313,3.4263822 3.426382,3.4263822 1.88925064,0 3.4263821,-1.5371316 3.4263821,-3.4263822 0,-0.7933959 -0.3155586,-1.4938285 -0.7691878,-2.0744763 C 2.4152718,1.7663868 3.7718375,2.2973711 4.7661444,3.8340272 4.0279463,3.0958289 3.5540908,1.7534117 3.5540908,-0.05852936 l -0.6293354,-0.04661745 0.5827179,-0.0233087 c 0,-1.81194109 0.4505466,-3.15435829 1.188745,-3.89255659 -0.9590906,1.4822308 -2.2571634,2.0263625 -3.5662345,2.3075635 0.4041964,-0.5619092 0.6992616,-1.213407 0.6992616,-1.9579327 0,-1.8892506 -1.53713146,-3.4263822 -3.4263821,-3.4263822 z" transform="scale(0.6)"/></marker><marker style="overflow:visible" id="marker11995" orient="auto" refX="0" refY="0"><path style="fill:#000;fill-opacity:1;fill-rule:evenodd;stroke:#000;stroke-width:.7458791pt;stroke-opacity:1" id="path11993" d="m -1.5971367,-7.0977635 c -1.8892507,0 -3.426382,1.5371314 -3.426382,3.4263822 0,0.6566798 0.2383531,1.2269257 0.5594092,1.7481542 -0.038751,0.032111 -0.079672,0.058463 -0.1165436,0.093235 -0.6224234,-0.8549928 -1.5893983,-1.4451409 -2.7271199,-1.4451409 -1.8892515,-1e-7 -3.426382,1.5371314 -3.426382,3.42638214 0,1.88925076 1.5371305,3.42638216 3.426382,3.42638216 0.9934462,0 1.868619,-0.4420611 2.4940326,-1.1188187 -0.124687,0.3548915 -0.2097783,0.7214874 -0.2097783,1.1188187 0,1.8892506 1.5371313,3.4263822 3.426382,3.4263822 1.88925064,0 3.4263821,-1.5371316 3.4263821,-3.4263822 0,-0.7933959 -0.3155586,-1.4938285 -0.7691878,-2.0744763 C 2.4152718,1.7663868 3.7718375,2.2973711 4.7661444,3.8340272 4.0279463,3.0958289 3.5540908,1.7534117 3.5540908,-0.05852936 l -0.6293354,-0.04661745 0.5827179,-0.0233087 c 0,-1.81194109 0.4505466,-3.15435829 1.188745,-3.89255659 -0.9590906,1.4822308 -2.2571634,2.0263625 -3.5662345,2.3075635 0.4041964,-0.5619092 0.6992616,-1.213407 0.6992616,-1.9579327 0,-1.8892506 -1.53713146,-3.4263822 -3.4263821,-3.4263822 z" transform="scale(0.6)"/></marker><marker style="overflow:visible" id="marker11709" orient="auto" refX="0" refY="0"><path style="fill:#000;fill-opacity:1;fill-rule:evenodd;stroke:#000;stroke-width:.7458791pt;stroke-opacity:1" id="path11707" d="m -1.5971367,-7.0977635 c -1.8892507,0 -3.426382,1.5371314 -3.426382,3.4263822 0,0.6566798 0.2383531,1.2269257 0.5594092,1.7481542 -0.038751,0.032111 -0.079672,0.058463 -0.1165436,0.093235 -0.6224234,-0.8549928 -1.5893983,-1.4451409 -2.7271199,-1.4451409 -1.8892515,-1e-7 -3.426382,1.5371314 -3.426382,3.42638214 0,1.88925076 1.5371305,3.42638216 3.426382,3.42638216 0.9934462,0 1.868619,-0.4420611 2.4940326,-1.1188187 -0.124687,0.3548915 -0.2097783,0.7214874 -0.2097783,1.1188187 0,1.8892506 1.5371313,3.4263822 3.426382,3.4263822 1.88925064,0 3.4263821,-1.5371316 3.4263821,-3.4263822 0,-0.7933959 -0.3155586,-1.4938285 -0.7691878,-2.0744763 C 2.4152718,1.7663868 3.7718375,2.2973711 4.7661444,3.8340272 4.0279463,3.0958289 3.5540908,1.7534117 3.5540908,-0.05852936 l -0.6293354,-0.04661745 0.5827179,-0.0233087 c 0,-1.81194109 0.4505466,-3.15435829 1.188745,-3.89255659 -0.9590906,1.4822308 -2.2571634,2.0263625 -3.5662345,2.3075635 0.4041964,-0.5619092 0.6992616,-1.213407 0.6992616,-1.9579327 0,-1.8892506 -1.53713146,-3.4263822 -3.4263821,-3.4263822 z" transform="scale(0.6)"/></marker><marker style="overflow:visible" id="marker11429" orient="auto" refX="0" refY="0"><path style="fill:#000;fill-opacity:1;fill-rule:evenodd;stroke:#000;stroke-width:.7458791pt;stroke-opacity:1" id="path11427" d="m -1.5971367,-7.0977635 c -1.8892507,0 -3.426382,1.5371314 -3.426382,3.4263822 0,0.6566798 0.2383531,1.2269257 0.5594092,1.7481542 -0.038751,0.032111 -0.079672,0.058463 -0.1165436,0.093235 -0.6224234,-0.8549928 -1.5893983,-1.4451409 -2.7271199,-1.4451409 -1.8892515,-1e-7 -3.426382,1.5371314 -3.426382,3.42638214 0,1.88925076 1.5371305,3.42638216 3.426382,3.42638216 0.9934462,0 1.868619,-0.4420611 2.4940326,-1.1188187 -0.124687,0.3548915 -0.2097783,0.7214874 -0.2097783,1.1188187 0,1.8892506 1.5371313,3.4263822 3.426382,3.4263822 1.88925064,0 3.4263821,-1.5371316 3.4263821,-3.4263822 0,-0.7933959 -0.3155586,-1.4938285 -0.7691878,-2.0744763 C 2.4152718,1.7663868 3.7718375,2.2973711 4.7661444,3.8340272 4.0279463,3.0958289 3.5540908,1.7534117 3.5540908,-0.05852936 l -0.6293354,-0.04661745 0.5827179,-0.0233087 c 0,-1.81194109 0.4505466,-3.15435829 1.188745,-3.89255659 -0.9590906,1.4822308 -2.2571634,2.0263625 -3.5662345,2.3075635 0.4041964,-0.5619092 0.6992616,-1.213407 0.6992616,-1.9579327 0,-1.8892506 -1.53713146,-3.4263822 -3.4263821,-3.4263822 z" transform="scale(0.6)"/></marker><marker style="overflow:visible" id="marker11419" orient="auto" refX="0" refY="0"><path style="fill:#000;fill-opacity:1;fill-rule:evenodd;stroke:#000;stroke-width:.7458791pt;stroke-opacity:1" id="path11417" d="m -1.5971367,-7.0977635 c -1.8892507,0 -3.426382,1.5371314 -3.426382,3.4263822 0,0.6566798 0.2383531,1.2269257 0.5594092,1.7481542 -0.038751,0.032111 -0.079672,0.058463 -0.1165436,0.093235 -0.6224234,-0.8549928 -1.5893983,-1.4451409 -2.7271199,-1.4451409 -1.8892515,-1e-7 -3.426382,1.5371314 -3.426382,3.42638214 0,1.88925076 1.5371305,3.42638216 3.426382,3.42638216 0.9934462,0 1.868619,-0.4420611 2.4940326,-1.1188187 -0.124687,0.3548915 -0.2097783,0.7214874 -0.2097783,1.1188187 0,1.8892506 1.5371313,3.4263822 3.426382,3.4263822 1.88925064,0 3.4263821,-1.5371316 3.4263821,-3.4263822 0,-0.7933959 -0.3155586,-1.4938285 -0.7691878,-2.0744763 C 2.4152718,1.7663868 3.7718375,2.2973711 4.7661444,3.8340272 4.0279463,3.0958289 3.5540908,1.7534117 3.5540908,-0.05852936 l -0.6293354,-0.04661745 0.5827179,-0.0233087 c 0,-1.81194109 0.4505466,-3.15435829 1.188745,-3.89255659 -0.9590906,1.4822308 -2.2571634,2.0263625 -3.5662345,2.3075635 0.4041964,-0.5619092 0.6992616,-1.213407 0.6992616,-1.9579327 0,-1.8892506 -1.53713146,-3.4263822 -3.4263821,-3.4263822 z" transform="scale(0.6)"/></marker><marker style="overflow:visible" id="marker10867" orient="auto" refX="0" refY="0"><path style="fill:#000;fill-opacity:1;fill-rule:evenodd;stroke:#000;stroke-width:1.00000003pt;stroke-opacity:1" id="path10865" d="M 5.77,0 -2.88,5 V -5 Z" transform="scale(-0.8)"/></marker><marker style="overflow:visible" id="marker10605" orient="auto" refX="0" refY="0"><path style="fill:#000;fill-opacity:1;fill-rule:evenodd;stroke:#000;stroke-width:1.00000003pt;stroke-opacity:1" id="path10603" d="M 5.77,0 -2.88,5 V -5 Z" transform="scale(-0.8)"/></marker><marker style="overflow:visible" id="marker10349" orient="auto" refX="0" refY="0"><path style="fill:#000;fill-opacity:1;fill-rule:evenodd;stroke:#000;stroke-width:1.00000003pt;stroke-opacity:1" id="path10347" d="M 5.77,0 -2.88,5 V -5 Z" transform="scale(-0.8)"/></marker><marker style="overflow:visible" id="marker10099" orient="auto" refX="0" refY="0"><path style="fill:#000;fill-opacity:1;fill-rule:evenodd;stroke:#000;stroke-width:1.00000003pt;stroke-opacity:1" id="path10097" d="M 5.77,0 -2.88,5 V -5 Z" transform="scale(-0.8)"/></marker><marker style="overflow:visible" id="marker9855" orient="auto" refX="0" refY="0"><path style="fill:#000;fill-opacity:1;fill-rule:evenodd;stroke:#000;stroke-width:1.00000003pt;stroke-opacity:1" id="path9853" d="M 5.77,0 -2.88,5 V -5 Z" transform="scale(-0.8)"/></marker><marker style="overflow:visible" id="marker9617" orient="auto" refX="0" refY="0"><path style="fill:#000;fill-opacity:1;fill-rule:evenodd;stroke:#000;stroke-width:1.00000003pt;stroke-opacity:1" id="path9615" d="M 5.77,0 -2.88,5 V -5 Z" transform="scale(-0.8)"/></marker><marker style="overflow:visible" id="marker9607" orient="auto" refX="0" refY="0"><path style="fill:#000;fill-opacity:1;fill-rule:evenodd;stroke:#000;stroke-width:1.00000003pt;stroke-opacity:1" id="path9605" d="M 5.77,0 -2.88,5 V -5 Z" transform="scale(-0.8)"/></marker><marker style="overflow:visible" id="marker9049" orient="auto" refX="0" refY="0"><path style="fill:none;fill-rule:evenodd;stroke:#000;stroke-width:1.00000003pt;stroke-opacity:1" id="path9047" d="m 4.625493,-5.0456926 c -2.76,0 -5.00000002,2.24 -5.00000002,5.00000002 0,2.75999998 2.24000002,4.99999998 5.00000002,4.99999998" transform="scale(0.6)"/></marker><marker style="overflow:visible" id="marker8829" orient="auto" refX="0" refY="0"><path style="fill:none;fill-rule:evenodd;stroke:#000;stroke-width:1.00000003pt;stroke-opacity:1" id="path8827" d="m 4.625493,-5.0456926 c -2.76,0 -5.00000002,2.24 -5.00000002,5.00000002 0,2.75999998 2.24000002,4.99999998 5.00000002,4.99999998" transform="scale(0.6)"/></marker><marker style="overflow:visible" id="marker8615" orient="auto" refX="0" refY="0"><path style="fill:none;fill-rule:evenodd;stroke:#000;stroke-width:1.00000003pt;stroke-opacity:1" id="path8613" d="m 4.625493,-5.0456926 c -2.76,0 -5.00000002,2.24 -5.00000002,5.00000002 0,2.75999998 2.24000002,4.99999998 5.00000002,4.99999998" transform="scale(0.6)"/></marker><marker style="overflow:visible" id="marker8407" orient="auto" refX="0" refY="0"><path style="fill:none;fill-rule:evenodd;stroke:#000;stroke-width:1.00000003pt;stroke-opacity:1" id="path8405" d="m 4.625493,-5.0456926 c -2.76,0 -5.00000002,2.24 -5.00000002,5.00000002 0,2.75999998 2.24000002,4.99999998 5.00000002,4.99999998" transform="scale(0.6)"/></marker><marker style="overflow:visible" id="marker8205" orient="auto" refX="0" refY="0"><path style="fill:none;fill-rule:evenodd;stroke:#000;stroke-width:1.00000003pt;stroke-opacity:1" id="path8203" d="m 4.625493,-5.0456926 c -2.76,0 -5.00000002,2.24 -5.00000002,5.00000002 0,2.75999998 2.24000002,4.99999998 5.00000002,4.99999998" transform="scale(0.6)"/></marker><marker style="overflow:visible" id="marker8009" orient="auto" refX="0" refY="0"><path style="fill:none;fill-rule:evenodd;stroke:#000;stroke-width:1.00000003pt;stroke-opacity:1" id="path8007" d="m 4.625493,-5.0456926 c -2.76,0 -5.00000002,2.24 -5.00000002,5.00000002 0,2.75999998 2.24000002,4.99999998 5.00000002,4.99999998" transform="scale(0.6)"/></marker><marker style="overflow:visible" id="marker7999" orient="auto" refX="0" refY="0"><path style="fill:none;fill-rule:evenodd;stroke:#000;stroke-width:1.00000003pt;stroke-opacity:1" id="path7997" d="m 4.625493,-5.0456926 c -2.76,0 -5.00000002,2.24 -5.00000002,5.00000002 0,2.75999998 2.24000002,4.99999998 5.00000002,4.99999998" transform="scale(0.6)"/></marker><marker style="overflow:visible" id="marker7615" orient="auto" refX="0" refY="0"><path style="fill:none;fill-opacity:.75;fill-rule:evenodd;stroke:#000;stroke-width:1.00000003pt;stroke-opacity:1" id="path7613" d="M 0,5.65 V -5.65" transform="scale(0.2)"/></marker><marker style="overflow:visible" id="marker7437" orient="auto" refX="0" refY="0"><path style="fill:none;fill-opacity:.75;fill-rule:evenodd;stroke:#000;stroke-width:1.00000003pt;stroke-opacity:1" id="path7435" d="M 0,5.65 V -5.65" transform="scale(0.2)"/></marker><marker style="overflow:visible" id="marker7265" orient="auto" refX="0" refY="0"><path style="fill:none;fill-opacity:.75;fill-rule:evenodd;stroke:#000;stroke-width:1.00000003pt;stroke-opacity:1" id="path7263" d="M 0,5.65 V -5.65" transform="scale(0.2)"/></marker><marker style="overflow:visible" id="marker7099" orient="auto" refX="0" refY="0"><path style="fill:none;fill-opacity:.75;fill-rule:evenodd;stroke:#000;stroke-width:1.00000003pt;stroke-opacity:1" id="path7097" d="M 0,5.65 V -5.65" transform="scale(0.2)"/></marker><marker style="overflow:visible" id="marker6939" orient="auto" refX="0" refY="0"><path style="fill:none;fill-opacity:.75;fill-rule:evenodd;stroke:#000;stroke-width:1.00000003pt;stroke-opacity:1" id="path6937" d="M 0,5.65 V -5.65" transform="scale(0.2)"/></marker><marker style="overflow:visible" id="marker6785" orient="auto" refX="0" refY="0"><path style="fill:none;fill-opacity:.75;fill-rule:evenodd;stroke:#000;stroke-width:1.00000003pt;stroke-opacity:1" id="path6783" d="M 0,5.65 V -5.65" transform="scale(0.2)"/></marker><marker style="overflow:visible" id="marker6775" orient="auto" refX="0" refY="0"><path style="fill:none;fill-opacity:.75;fill-rule:evenodd;stroke:#000;stroke-width:1.00000003pt;stroke-opacity:1" id="path6773" d="M 0,5.65 V -5.65" transform="scale(0.2)"/></marker><marker style="overflow:visible" id="marker6475" orient="auto" refX="0" refY="0"><path style="fill:none;fill-rule:evenodd;stroke:#000;stroke-width:1.00000003pt;stroke-opacity:1" id="path6473" d="m 4.625493,-5.0456926 c -2.76,0 -5.00000002,2.24 -5.00000002,5.00000002 0,2.75999998 2.24000002,4.99999998 5.00000002,4.99999998" transform="scale(0.6)"/></marker><marker style="overflow:visible" id="marker6339" orient="auto" refX="0" refY="0"><path style="fill:none;fill-rule:evenodd;stroke:#000;stroke-width:1.00000003pt;stroke-opacity:1" id="path6337" d="m 4.625493,-5.0456926 c -2.76,0 -5.00000002,2.24 -5.00000002,5.00000002 0,2.75999998 2.24000002,4.99999998 5.00000002,4.99999998" transform="scale(0.6)"/></marker><marker style="overflow:visible" id="marker6209" orient="auto" refX="0" refY="0"><path style="fill:none;fill-rule:evenodd;stroke:#000;stroke-width:1.00000003pt;stroke-opacity:1" id="path6207" d="m 4.625493,-5.0456926 c -2.76,0 -5.00000002,2.24 -5.00000002,5.00000002 0,2.75999998 2.24000002,4.99999998 5.00000002,4.99999998" transform="scale(0.6)"/></marker><marker style="overflow:visible" id="marker6085" orient="auto" refX="0" refY="0"><path style="fill:none;fill-rule:evenodd;stroke:#000;stroke-width:1.00000003pt;stroke-opacity:1" id="path6083" d="m 4.625493,-5.0456926 c -2.76,0 -5.00000002,2.24 -5.00000002,5.00000002 0,2.75999998 2.24000002,4.99999998 5.00000002,4.99999998" transform="scale(0.6)"/></marker><marker style="overflow:visible" id="marker5967" orient="auto" refX="0" refY="0"><path style="fill:none;fill-rule:evenodd;stroke:#000;stroke-width:1.00000003pt;stroke-opacity:1" id="path5965" d="m 4.625493,-5.0456926 c -2.76,0 -5.00000002,2.24 -5.00000002,5.00000002 0,2.75999998 2.24000002,4.99999998 5.00000002,4.99999998" transform="scale(0.6)"/></marker><marker style="overflow:visible" id="marker5855" orient="auto" refX="0" refY="0"><path style="fill:none;fill-rule:evenodd;stroke:#000;stroke-width:1.00000003pt;stroke-opacity:1" id="path5853" d="m 4.625493,-5.0456926 c -2.76,0 -5.00000002,2.24 -5.00000002,5.00000002 0,2.75999998 2.24000002,4.99999998 5.00000002,4.99999998" transform="scale(0.6)"/></marker><marker style="overflow:visible" id="marker5845" orient="auto" refX="0" refY="0"><path style="fill:none;fill-rule:evenodd;stroke:#000;stroke-width:1.00000003pt;stroke-opacity:1" id="path5843" d="m 4.625493,-5.0456926 c -2.76,0 -5.00000002,2.24 -5.00000002,5.00000002 0,2.75999998 2.24000002,4.99999998 5.00000002,4.99999998" transform="scale(0.6)"/></marker><marker style="overflow:visible" id="marker5629" orient="auto" refX="0" refY="0"><path style="fill:#fff;fill-rule:evenodd;stroke:#000;stroke-width:1.00000003pt;stroke-opacity:1" id="path5627" d="M 0,-7.0710768 -7.0710894,0 0,7.0710589 7.0710462,0 Z" transform="matrix(0.2,0,0,0.2,1.2,0)"/></marker><marker style="overflow:visible" id="marker5535" orient="auto" refX="0" refY="0"><path style="fill:#fff;fill-rule:evenodd;stroke:#000;stroke-width:1.00000003pt;stroke-opacity:1" id="path5533" d="M 0,-7.0710768 -7.0710894,0 0,7.0710589 7.0710462,0 Z" transform="matrix(0.2,0,0,0.2,1.2,0)"/></marker><marker style="overflow:visible" id="marker5447" orient="auto" refX="0" refY="0"><path style="fill:#fff;fill-rule:evenodd;stroke:#000;stroke-width:1.00000003pt;stroke-opacity:1" id="path5445" d="M 0,-7.0710768 -7.0710894,0 0,7.0710589 7.0710462,0 Z" transform="matrix(0.2,0,0,0.2,1.2,0)"/></marker><marker style="overflow:visible" id="marker5365" orient="auto" refX="0" refY="0"><path style="fill:#fff;fill-rule:evenodd;stroke:#000;stroke-width:1.00000003pt;stroke-opacity:1" id="path5363" d="M 0,-7.0710768 -7.0710894,0 0,7.0710589 7.0710462,0 Z" transform="matrix(0.2,0,0,0.2,1.2,0)"/></marker><marker style="overflow:visible" id="marker5289" orient="auto" refX="0" refY="0"><path style="fill:#fff;fill-rule:evenodd;stroke:#000;stroke-width:1.00000003pt;stroke-opacity:1" id="path5287" d="M 0,-7.0710768 -7.0710894,0 0,7.0710589 7.0710462,0 Z" transform="matrix(0.2,0,0,0.2,1.2,0)"/></marker><marker style="overflow:visible" id="marker5219" orient="auto" refX="0" refY="0"><path style="fill:#fff;fill-rule:evenodd;stroke:#000;stroke-width:1.00000003pt;stroke-opacity:1" id="path5217" d="M 0,-7.0710768 -7.0710894,0 0,7.0710589 7.0710462,0 Z" transform="matrix(0.2,0,0,0.2,1.2,0)"/></marker><marker style="overflow:visible" id="marker5209" orient="auto" refX="0" refY="0"><path style="fill:#fff;fill-rule:evenodd;stroke:#000;stroke-width:1.00000003pt;stroke-opacity:1" id="path5207" d="M 0,-7.0710768 -7.0710894,0 0,7.0710589 7.0710462,0 Z" transform="matrix(0.2,0,0,0.2,1.2,0)"/></marker><marker style="overflow:visible" id="marker5077" orient="auto" refX="0" refY="0"><path style="fill:#fff;fill-rule:evenodd;stroke:#000;stroke-width:1.00000003pt;stroke-opacity:1" id="path5075" d="M 0,-7.0710768 -7.0710894,0 0,7.0710589 7.0710462,0 Z" transform="matrix(0.8,0,0,0.8,5.6,0)"/></marker><marker style="overflow:visible" id="marker5025" orient="auto" refX="0" refY="0"><path style="fill:#fff;fill-rule:evenodd;stroke:#000;stroke-width:1.00000003pt;stroke-opacity:1" id="path5023" d="M 0,-7.0710768 -7.0710894,0 0,7.0710589 7.0710462,0 Z" transform="matrix(0.8,0,0,0.8,5.6,0)"/></marker><marker style="overflow:visible" id="marker4979" orient="auto" refX="0" refY="0"><path style="fill:#fff;fill-rule:evenodd;stroke:#000;stroke-width:1.00000003pt;stroke-opacity:1" id="path4977" d="M 0,-7.0710768 -7.0710894,0 0,7.0710589 7.0710462,0 Z" transform="matrix(0.8,0,0,0.8,5.6,0)"/></marker><marker style="overflow:visible" id="marker4939" orient="auto" refX="0" refY="0"><path style="fill:#fff;fill-rule:evenodd;stroke:#000;stroke-width:1.00000003pt;stroke-opacity:1" id="path4937" d="M 0,-7.0710768 -7.0710894,0 0,7.0710589 7.0710462,0 Z" transform="matrix(0.8,0,0,0.8,5.6,0)"/></marker><marker style="overflow:visible" id="marker4905" orient="auto" refX="0" refY="0"><path style="fill:#fff;fill-rule:evenodd;stroke:#000;stroke-width:1.00000003pt;stroke-opacity:1" id="path4903" d="M 0,-7.0710768 -7.0710894,0 0,7.0710589 7.0710462,0 Z" transform="matrix(0.8,0,0,0.8,5.6,0)"/></marker><marker style="overflow:visible" id="marker4877" orient="auto" refX="0" refY="0"><path style="fill:#fff;fill-rule:evenodd;stroke:#000;stroke-width:1.00000003pt;stroke-opacity:1" id="path4875" d="M 0,-7.0710768 -7.0710894,0 0,7.0710589 7.0710462,0 Z" transform="matrix(0.8,0,0,0.8,5.6,0)"/></marker><marker style="overflow:visible" id="marker4855" orient="auto" refX="0" refY="0"><path style="fill:#fff;fill-rule:evenodd;stroke:#000;stroke-width:1.00000003pt;stroke-opacity:1" id="path4853" d="M 0,-7.0710768 -7.0710894,0 0,7.0710589 7.0710462,0 Z" transform="matrix(0.8,0,0,0.8,5.6,0)"/></marker><linearGradient id="linearGradient13886" x1="141.607" x2="176.62" y1="99.077" y2="146.384" gradientUnits="userSpaceOnUse" xlink:href="#linearGradient13884"/><linearGradient id="linearGradient13894" x1="127.191" x2="144.564" y1="100.457" y2="155.248" gradientUnits="userSpaceOnUse" xlink:href="#linearGradient13892"/><linearGradient id="linearGradient13902" x1="113.731" x2="121.482" y1="104.086" y2="158.341" gradientUnits="userSpaceOnUse" xlink:href="#linearGradient13900"/><linearGradient id="linearGradient13910" x1="100.154" x2="91.601" y1="104.306" y2="159.096" gradientUnits="userSpaceOnUse" xlink:href="#linearGradient13908"/><linearGradient id="linearGradient13918" x1="84.637" x2="61.117" y1="104.416" y2="156.8" gradientUnits="userSpaceOnUse" xlink:href="#linearGradient13916"/><linearGradient id="linearGradient13926" x1="69.765" x2="38.762" y1="102.032" y2="151.21" gradientUnits="userSpaceOnUse" xlink:href="#linearGradient13924"/><linearGradient id="linearGradient13934" x1="56.394" x2="17.64" y1="98.686" y2="141.984" gradientUnits="userSpaceOnUse" xlink:href="#linearGradient13932"/><radialGradient id="radialGradient14982" cx="98.814" cy="144.924" r="86.883" fx="98.814" fy="144.924" gradientTransform="matrix(1,0,0,0.15875,0,121.917)" gradientUnits="userSpaceOnUse" xlink:href="#linearGradient14980"/><radialGradient id="radialGradient14990" cx="98.814" cy="144.924" r="87.113" fx="98.814" fy="144.924" gradientTransform="matrix(1,0,0,0.16096994,0,121.59528)" gradientUnits="userSpaceOnUse" xlink:href="#linearGradient14988"/><linearGradient id="linearGradient15197" x1="48.814" x2="148.814" y1="72.032" y2="72.032" gradientUnits="userSpaceOnUse" xlink:href="#linearGradient15187"/></defs><metadata id="metadata5"/><g id="layer1" transform="translate(0,-161.53334)"><g id="g4101" transform="matrix(1.0667026,0,0,1.0667026,464.42202,-28.209455)"><g style="stroke-width:3;stroke-miterlimit:4;stroke-dasharray:none" id="g1533"><path style="opacity:.98999999;fill:none;stroke:#204a87;stroke-width:7.30000019;stroke-linecap:round;stroke-linejoin:round;stroke-miterlimit:4;stroke-dasharray:none;stroke-opacity:1" id="path1518" d="m -425.2151,298.43339 v -16.99945 l 22.68572,-11.28975 v -57.53694 l -22.68572,-11.28974 v -16.99944"/><path style="opacity:.98999999;fill:none;stroke:#f57900;stroke-width:7.30000019;stroke-linecap:round;stroke-linejoin:round;stroke-miterlimit:4;stroke-dasharray:none;stroke-opacity:1" id="path1520" d="m -398.62177,298.43339 v -12.76611 l 11.34279,-11.28975 v -66.00362 l -11.34279,-11.28974 v -12.7661"/><path style="opacity:.98999999;fill:none;stroke:#c00;stroke-width:7.30000019;stroke-linecap:round;stroke-linejoin:round;stroke-miterlimit:4;stroke-dasharray:none;stroke-opacity:1" id="path1522" d="M -372.02845,298.43339 V 281.43394 270.14419 212.60725 201.31751 184.31807"/><path style="opacity:.98999999;fill:none;stroke:#4e9a06;stroke-width:7.30000019;stroke-linecap:round;stroke-linejoin:round;stroke-miterlimit:4;stroke-dasharray:none;stroke-opacity:1" id="path1524" d="m -345.43515,298.43339 v -12.76611 l -11.34282,-11.28975 v -66.00362 l 11.34282,-11.28974 v -12.7661"/><path style="opacity:.98999999;fill:none;stroke:#ad7fa8;stroke-width:7.30000019;stroke-linecap:round;stroke-linejoin:round;stroke-miterlimit:4;stroke-dasharray:none;stroke-opacity:1" id="path1526" d="m -318.8418,298.43339 v -16.99945 l -22.6857,-11.28975 v -57.53694 l 22.6857,-11.28974 v -16.99944"/></g><rect id="rect4007" width="87.932" height="36.349" x="-415.994" y="223.768" ry="3.258" style="opacity:1;fill:#717171;fill-opacity:1;stroke:none;stroke-width:7.30000019;stroke-linecap:round;stroke-linejoin:bevel;stroke-miterlimit:4;stroke-dasharray:none;stroke-opacity:1"/><circle id="path4011" cx="-372.028" cy="241.942" r="10.424" style="opacity:1;fill:#fff;fill-opacity:1;stroke:none;stroke-width:5.9312501;stroke-linecap:round;stroke-linejoin:bevel;stroke-miterlimit:4;stroke-dasharray:none;stroke-opacity:1"/><circle id="path4018" cx="-372.028" cy="241.942" r="2.172" style="opacity:1;fill:#000;fill-opacity:1;stroke:none;stroke-width:2.96562505;stroke-linecap:round;stroke-linejoin:bevel;stroke-miterlimit:4;stroke-dasharray:none;stroke-opacity:1"/><path id="path4020" d="m -412.92069,299.6727 -24.45961,0.22375 12.03603,-21.29452 z" transform="matrix(0.7501064,0,0,0.37352018,-106.16163,191.19495)" style="opacity:1;fill:#204a87;fill-opacity:1;stroke:none;stroke-width:7.30000019;stroke-linecap:round;stroke-linejoin:bevel;stroke-miterlimit:4;stroke-dasharray:none;stroke-opacity:1"/><path id="path4020-3" d="m -412.92069,299.6727 -24.45961,0.22375 12.03603,-21.29452 z" transform="matrix(0.7501064,0,0,0.37352018,-79.568311,191.19495)" style="opacity:1;fill:#f57900;fill-opacity:1;stroke:none;stroke-width:7.30000019;stroke-linecap:round;stroke-linejoin:bevel;stroke-miterlimit:4;stroke-dasharray:none;stroke-opacity:1"/><path id="path4020-6" d="m -412.92069,299.6727 -24.45961,0.22375 12.03603,-21.29452 z" transform="matrix(0.7501064,0,0,0.37352018,-52.974987,191.19495)" style="opacity:1;fill:#c00;fill-opacity:1;stroke:none;stroke-width:7.30000019;stroke-linecap:round;stroke-linejoin:bevel;stroke-miterlimit:4;stroke-dasharray:none;stroke-opacity:1"/><path id="path4020-1" d="m -412.92069,299.6727 -24.45961,0.22375 12.03603,-21.29452 z" transform="matrix(0.7501064,0,0,0.37352018,-26.381691,191.19495)" style="opacity:1;fill:#4e9a06;fill-opacity:1;stroke:none;stroke-width:7.30000019;stroke-linecap:round;stroke-linejoin:bevel;stroke-miterlimit:4;stroke-dasharray:none;stroke-opacity:1"/><path id="path4020-2" d="m -412.92069,299.6727 -24.45961,0.22375 12.03603,-21.29452 z" transform="matrix(0.7501064,0,0,0.37352018,0.21165822,191.19495)" style="opacity:1;fill:#ad7fa8;fill-opacity:1;stroke:none;stroke-width:7.30000019;stroke-linecap:round;stroke-linejoin:bevel;stroke-miterlimit:4;stroke-dasharray:none;stroke-opacity:1"/><path id="path4020-9" d="m -412.92069,299.6727 -24.45961,0.22375 12.03603,-21.29452 z" transform="matrix(0.7501064,0,0,-0.37352018,-106.16163,291.55651)" style="opacity:1;fill:#204a87;fill-opacity:1;stroke:none;stroke-width:7.30000019;stroke-linecap:round;stroke-linejoin:bevel;stroke-miterlimit:4;stroke-dasharray:none;stroke-opacity:1"/><path id="path4020-3-3" d="m -412.92069,299.6727 -24.45961,0.22375 12.03603,-21.29452 z" transform="matrix(0.7501064,0,0,-0.37352018,-79.56831,291.55651)" style="opacity:1;fill:#f57900;fill-opacity:1;stroke:none;stroke-width:7.30000019;stroke-linecap:round;stroke-linejoin:bevel;stroke-miterlimit:4;stroke-dasharray:none;stroke-opacity:1"/><path id="path4020-6-1" d="m -412.92069,299.6727 -24.45961,0.22375 12.03603,-21.29452 z" transform="matrix(0.7501064,0,0,-0.37352018,-52.974987,291.55651)" style="opacity:1;fill:#c00;fill-opacity:1;stroke:none;stroke-width:7.30000019;stroke-linecap:round;stroke-linejoin:bevel;stroke-miterlimit:4;stroke-dasharray:none;stroke-opacity:1"/><path id="path4020-1-9" d="m -412.92069,299.6727 -24.45961,0.22375 12.03603,-21.29452 z" transform="matrix(0.7501064,0,0,-0.37352018,-26.381695,291.55651)" style="opacity:1;fill:#4e9a06;fill-opacity:1;stroke:none;stroke-width:7.30000019;stroke-linecap:round;stroke-linejoin:bevel;stroke-miterlimit:4;stroke-dasharray:none;stroke-opacity:1"/><path id="path4020-2-4" d="m -412.92069,299.6727 -24.45961,0.22375 12.03603,-21.29452 z" transform="matrix(0.7501064,0,0,-0.37352018,0.21165891,291.55651)" style="opacity:1;fill:#ad7fa8;fill-opacity:1;stroke:none;stroke-width:7.30000019;stroke-linecap:round;stroke-linejoin:bevel;stroke-miterlimit:4;stroke-dasharray:none;stroke-opacity:1"/></g></g></svg>